<?xml version="1.0" encoding="utf-8"?>
<!-- Generator: Adobe Illustrator 25.2.3, SVG Export Plug-In . SVG Version: 6.00 Build 0)  -->
<svg version="1.1" id="Layer_1" xmlns="http://www.w3.org/2000/svg" xmlns:xlink="http://www.w3.org/1999/xlink" x="0px" y="0px"
	 viewBox="0 0 1920 1080" style="enable-background:new 0 0 1920 1080;" xml:space="preserve">
<style type="text/css">
	.st0{fill:url(#SVGID_1_);}
	.st1{opacity:0.92;}
	.st2{fill:#010101;}
	.st3{fill:#020202;}
	.st4{fill:#030303;}
	.st5{fill:#040404;}
	.st6{fill:#050505;}
	.st7{fill:#060606;}
	.st8{fill:#070707;}
	.st9{fill:#080808;}
	.st10{fill:#090909;}
	.st11{fill:#0A0A0A;}
	.st12{fill:#0B0B0B;}
	.st13{fill:#0C0C0C;}
	.st14{fill:#0D0D0D;}
	.st15{fill:#0E0E0E;}
	.st16{fill:#0F0F0F;}
	.st17{fill:#101010;}
	.st18{fill:#111111;}
	.st19{fill:#121212;}
	.st20{fill:#131313;}
	.st21{fill:#141414;}
	.st22{fill:#151515;}
	.st23{fill:#161616;}
	.st24{fill:#171717;}
	.st25{fill:#181818;}
	.st26{fill:#191919;}
	.st27{fill:#1A1A1A;}
	.st28{fill:#1B1B1B;}
	.st29{fill:#1C1C1C;}
	.st30{fill:#1D1D1D;}
	.st31{fill:#1E1E1E;}
	.st32{fill:#1F1F1F;}
	.st33{fill:#202020;}
	.st34{fill:#212121;}
	.st35{fill:#222222;}
	.st36{fill:#232323;}
	.st37{fill:#242424;}
	.st38{fill:#252525;}
	.st39{fill:#262626;}
	.st40{fill:#272727;}
	.st41{fill:#282828;}
	.st42{fill:#292929;}
	.st43{fill:#2A2A2A;}
	.st44{fill:#2B2B2B;}
	.st45{fill:#2C2C2C;}
	.st46{fill:#2D2D2D;}
	.st47{fill:#2E2E2E;}
	.st48{fill:#2F2F2F;}
	.st49{fill:#303030;}
	.st50{fill:#313131;}
	.st51{fill:#323232;}
	.st52{fill:#333333;}
	.st53{fill:#343434;}
	.st54{fill:#353535;}
	.st55{fill:#363636;}
	.st56{fill:#373737;}
	.st57{fill:#383838;}
	.st58{fill:#393939;}
	.st59{fill:#3A3A3A;}
	.st60{fill:#3B3B3B;}
	.st61{fill:#3C3C3C;}
	.st62{fill:#3D3D3D;}
	.st63{fill:#3E3E3E;}
	.st64{fill:#3F3F3F;}
	.st65{fill:#404040;}
	.st66{fill:#414141;}
	.st67{fill:#424242;}
	.st68{fill:#434343;}
	.st69{fill:#444444;}
	.st70{fill:#454545;}
	.st71{fill:#464646;}
	.st72{fill:#474747;}
	.st73{fill:#484848;}
	.st74{fill:#494949;}
	.st75{fill:#4A4A4A;}
	.st76{fill:#4B4B4B;}
	.st77{fill:#4C4C4C;}
	.st78{fill:#4D4D4D;}
	.st79{fill:#4E4E4E;}
	.st80{fill:#4F4F4F;}
	.st81{fill:#505050;}
	.st82{fill:#515151;}
	.st83{fill:#525252;}
	.st84{fill:#535353;}
	.st85{fill:#545454;}
	.st86{fill:#555555;}
	.st87{fill:#565656;}
	.st88{fill:#575757;}
	.st89{fill:#585858;}
	.st90{fill:#595959;}
	.st91{fill:#5A5A5A;}
	.st92{fill:#5B5B5B;}
	.st93{fill:#5C5C5C;}
	.st94{fill:#5D5D5D;}
	.st95{fill:#5E5E5E;}
	.st96{fill:#5F5F5F;}
	.st97{fill:#606060;}
	.st98{fill:#616161;}
	.st99{fill:#626262;}
	.st100{fill:#636363;}
	.st101{fill:#646464;}
	.st102{fill:#656565;}
	.st103{fill:#666666;}
	.st104{fill:#676767;}
	.st105{fill:#686868;}
	.st106{fill:#696969;}
	.st107{fill:#6A6A6A;}
	.st108{fill:#6B6B6B;}
	.st109{fill:#6C6C6C;}
	.st110{fill:#6D6D6D;}
	.st111{fill:#6E6E6E;}
	.st112{fill:#6F6F6F;}
	.st113{fill:#707070;}
	.st114{fill:#717171;}
	.st115{fill:#727272;}
	.st116{fill:#737373;}
	.st117{fill:#747474;}
	.st118{fill:#757575;}
	.st119{fill:#767676;}
	.st120{fill:#777777;}
	.st121{fill:#787878;}
	.st122{fill:#797979;}
	.st123{fill:#7A7A7A;}
	.st124{fill:#7B7B7B;}
	.st125{fill:#7C7C7C;}
	.st126{fill:#7D7D7D;}
	.st127{fill:#7E7E7E;}
	.st128{fill:#7F7F7F;}
	.st129{fill:#808080;}
	.st130{fill:#818181;}
	.st131{fill:#828282;}
	.st132{fill:#838383;}
	.st133{fill:#848484;}
	.st134{fill:#858585;}
	.st135{fill:#868686;}
	.st136{fill:#878787;}
	.st137{fill:#888888;}
	.st138{fill:#898989;}
	.st139{fill:#8A8A8A;}
	.st140{fill:#8B8B8B;}
	.st141{fill:#8C8C8C;}
	.st142{fill:#8D8D8D;}
	.st143{fill:#8E8E8E;}
	.st144{fill:#8F8F8F;}
	.st145{fill:#909090;}
	.st146{fill:#919191;}
	.st147{fill:#929292;}
	.st148{fill:#939393;}
	.st149{fill:#949494;}
	.st150{fill:#959595;}
	.st151{fill:#969696;}
	.st152{fill:#979797;}
	.st153{fill:#989898;}
	.st154{fill:#999999;}
	.st155{fill:#9A9A9A;}
	.st156{fill:#9B9B9B;}
	.st157{fill:#9C9C9C;}
	.st158{fill:#9D9D9D;}
	.st159{fill:#9E9E9E;}
	.st160{fill:#9F9F9F;}
	.st161{fill:#A0A0A0;}
	.st162{fill:#A1A1A1;}
	.st163{fill:#A2A2A2;}
	.st164{fill:#A3A3A3;}
	.st165{fill:#A4A4A4;}
	.st166{fill:#A5A5A5;}
	.st167{fill:#A6A6A6;}
	.st168{fill:#A7A7A7;}
	.st169{fill:#A8A8A8;}
	.st170{fill:#A9A9A9;}
	.st171{fill:#AAAAAA;}
	.st172{fill:#ABABAB;}
	.st173{fill:#ACACAC;}
	.st174{fill:#ADADAD;}
	.st175{fill:#AEAEAE;}
	.st176{fill:#AFAFAF;}
	.st177{fill:#B0B0B0;}
	.st178{fill:#B1B1B1;}
	.st179{fill:#B2B2B2;}
	.st180{fill:#B3B3B3;}
	.st181{fill:#B4B4B4;}
	.st182{fill:#B5B5B5;}
	.st183{fill:#B6B6B6;}
	.st184{fill:#B7B7B7;}
	.st185{fill:#B8B8B8;}
	.st186{fill:#B9B9B9;}
	.st187{fill:#BABABA;}
	.st188{fill:#BBBBBB;}
	.st189{fill:#BCBCBC;}
	.st190{fill:#BDBDBD;}
	.st191{fill:#BEBEBE;}
	.st192{fill:#BFBFBF;}
	.st193{fill:#C0C0C0;}
	.st194{fill:#C1C1C1;}
	.st195{fill:#C2C2C2;}
	.st196{fill:#C3C3C3;}
	.st197{fill:#C4C4C4;}
	.st198{fill:#C5C5C5;}
	.st199{fill:#C6C6C6;}
	.st200{fill:#C7C7C7;}
	.st201{fill:#C8C8C8;}
	.st202{fill:#C9C9C9;}
	.st203{fill:#CACACA;}
	.st204{fill:#CBCBCB;}
	.st205{fill:#CCCCCC;}
	.st206{fill:#CDCDCD;}
	.st207{fill:#CECECE;}
	.st208{fill:#CFCFCF;}
	.st209{fill:#D0D0D0;}
	.st210{fill:#D1D1D1;}
	.st211{fill:#D2D2D2;}
	.st212{fill:#D3D3D3;}
	.st213{fill:#D4D4D4;}
	.st214{fill:#D5D5D5;}
	.st215{fill:#D6D6D6;}
	.st216{fill:#D7D7D7;}
	.st217{fill:#D8D8D8;}
	.st218{fill:#D9D9D9;}
	.st219{fill:#DADADA;}
	.st220{fill:#DBDBDB;}
	.st221{fill:#DCDCDC;}
	.st222{fill:#DDDDDD;}
	.st223{fill:#DEDEDE;}
	.st224{fill:#DFDFDF;}
	.st225{fill:#E0E0E0;}
	.st226{fill:#E1E1E1;}
	.st227{fill:#E2E2E2;}
	.st228{fill:#E3E3E3;}
	.st229{fill:#E4E4E4;}
	.st230{fill:#E5E5E5;}
	.st231{fill:#E6E6E6;}
	.st232{fill:#E7E7E7;}
	.st233{fill:#E8E8E8;}
	.st234{fill:#E9E9E9;}
	.st235{fill:#EAEAEA;}
	.st236{fill:#EBEBEB;}
	.st237{fill:#ECECEC;}
	.st238{fill:#EDEDED;}
	.st239{fill:#EEEEEE;}
	.st240{fill:#EFEFEF;}
	.st241{fill:#F0F0F0;}
	.st242{fill:#F1F1F1;}
	.st243{fill:#F2F2F2;}
	.st244{fill:#F3F3F3;}
	.st245{fill:#F4F4F4;}
	.st246{fill:#F5F5F5;}
	.st247{fill:#F6F6F6;}
	.st248{fill:#F7F7F7;}
	.st249{fill:#F8F8F8;}
	.st250{fill:#F9F9F9;}
	.st251{fill:#FAFAFA;}
	.st252{fill:#FBFBFB;}
	.st253{fill:#FCFCFC;}
	.st254{fill:#FDFDFD;}
	.st255{fill:#FEFEFE;}
	.st256{fill:#FFFFFF;}
</style>
<linearGradient id="SVGID_1_" gradientUnits="userSpaceOnUse" x1="0" y1="540" x2="1920" y2="540">
	<stop  offset="9.536743e-07" style="stop-color:#100A1C"/>
	<stop  offset="0.5101" style="stop-color:#32182D"/>
	<stop  offset="1" style="stop-color:#12121B"/>
</linearGradient>
<rect class="st0" width="1920" height="1080"/>
<g class="st1">
	<path d="M960,513.2l7.5-13h-15L960,513.2z M652.8,327.2h614.4L960,859.3L652.8,327.2z"/>
	<path class="st2" d="M960,513.9l8.1-14h-16.1L960,513.9z M653.4,327.5h613.3L960,858.7L653.4,327.5z"/>
	<path class="st3" d="M960,514.6l8.6-15h-17.3L960,514.6z M653.9,327.8h612.2L960,858L653.9,327.8z"/>
	<path class="st4" d="M960,515.2l9.2-16h-18.5L960,515.2z M654.4,328.2h611.1L960,857.4L654.4,328.2z"/>
	<path class="st5" d="M960,515.9l9.8-17h-19.6L960,515.9z M655,328.5h610L960,856.8L655,328.5z"/>
	<path class="st6" d="M960,516.6l10.4-18h-20.8L960,516.6z M655.5,328.8h608.9L960,856.1L655.5,328.8z"/>
	<path class="st7" d="M960,517.2l11-19H949L960,517.2z M656.1,329.1h607.8L960,855.5L656.1,329.1z"/>
	<path class="st8" d="M960,517.9l11.5-20h-23.1L960,517.9z M656.6,329.4h606.7L960,854.9L656.6,329.4z"/>
	<path class="st9" d="M960,518.6l12.1-21h-24.3L960,518.6z M657.2,329.7h605.6L960,854.2L657.2,329.7z"/>
	<path class="st10" d="M960,519.2l12.7-22h-25.4L960,519.2z M657.7,330.1h604.6L960,853.6L657.7,330.1z"/>
	<path class="st11" d="M960,519.9l13.3-23h-26.6L960,519.9z M658.3,330.4h603.5L960,853L658.3,330.4z"/>
	<path class="st12" d="M960,520.6l13.8-24h-27.7L960,520.6z M658.8,330.7h602.4L960,852.3L658.8,330.7z"/>
	<path class="st13" d="M960,521.3l14.4-25h-28.9L960,521.3z M659.4,331h601.3L960,851.7L659.4,331z"/>
	<path class="st14" d="M960,521.9l15-26h-30L960,521.9z M659.9,331.3h600.2L960,851.1L659.9,331.3z"/>
	<path class="st15" d="M960,522.6l15.6-27h-31.2L960,522.6z M660.5,331.6h599.1L960,850.5L660.5,331.6z"/>
	<path class="st16" d="M960,523.3l16.2-28h-32.4L960,523.3z M661,331.9h598L960,849.8L661,331.9z"/>
	<path class="st17" d="M960,523.9l16.7-29.1h-33.5L960,523.9z M661.5,332.3h596.9L960,849.2L661.5,332.3z"/>
	<path class="st18" d="M960,524.6l17.3-30.1h-34.7L960,524.6z M662.1,332.6h595.8L960,848.6L662.1,332.6z"/>
	<path class="st19" d="M960,525.3l17.9-31.1H942L960,525.3z M662.6,332.9h594.7L960,847.9L662.6,332.9z"/>
	<path class="st20" d="M960,525.9l18.5-32.1h-37L960,525.9z M663.2,333.2h593.6L960,847.3L663.2,333.2z"/>
	<path class="st21" d="M960,526.6l19-33.1h-38.2L960,526.6z M663.7,333.5h592.5L960,846.7L663.7,333.5z"/>
	<path class="st22" d="M960,527.3l19.6-34.1h-39.3L960,527.3z M664.3,333.8h591.4L960,846L664.3,333.8z"/>
	<path class="st23" d="M960,528l20.2-35.1h-40.5L960,528z M664.8,334.2h590.4L960,845.4L664.8,334.2z"/>
	<path class="st24" d="M960,528.6l20.8-36.1h-41.6L960,528.6z M665.4,334.5h589.3L960,844.8L665.4,334.5z"/>
	<path class="st25" d="M960,529.3l21.4-37.1h-42.8L960,529.3z M665.9,334.8h588.2L960,844.1L665.9,334.8z"/>
	<path class="st26" d="M960,530l21.9-38.1h-44L960,530z M666.5,335.1h587.1L960,843.5L666.5,335.1z"/>
	<path class="st27" d="M960,530.6l22.5-39.1h-45.1L960,530.6z M667,335.4h586L960,842.9L667,335.4z"/>
	<path class="st28" d="M960,531.3l23.1-40.1h-46.3L960,531.3z M667.6,335.7h584.9L960,842.3L667.6,335.7z"/>
	<path class="st29" d="M960,532l23.7-41.1h-47.4L960,532z M668.1,336h583.8L960,841.6L668.1,336z"/>
	<path class="st30" d="M960,532.6l24.2-42.1h-48.6L960,532.6z M668.6,336.4h582.7L960,841L668.6,336.4z"/>
	<path class="st31" d="M960,533.3l24.8-43.1h-49.8L960,533.3z M669.2,336.7h581.6L960,840.4L669.2,336.7z"/>
	<path class="st32" d="M960,534l25.4-44.1h-50.9L960,534z M669.7,337h580.5L960,839.7L669.7,337z"/>
	<path class="st33" d="M960,534.7l26-45.1h-52.1L960,534.7z M670.3,337.3h579.4L960,839.1L670.3,337.3z"/>
	<path class="st34" d="M960,535.3l26.6-46.1h-53.2L960,535.3z M670.8,337.6h578.3L960,838.5L670.8,337.6z"/>
	<path class="st35" d="M960,536l27.1-47.1h-54.4L960,536z M671.4,337.9h577.2L960,837.8L671.4,337.9z"/>
	<path class="st36" d="M960,536.7l27.7-48.1h-55.6L960,536.7z M671.9,338.3h576.1L960,837.2L671.9,338.3z"/>
	<path class="st37" d="M960,537.3l28.3-49.2h-56.7L960,537.3z M672.5,338.6h575.1L960,836.6L672.5,338.6z"/>
	<path class="st38" d="M960,538l28.9-50.2H931L960,538z M673,338.9h574L960,835.9L673,338.9z"/>
	<path class="st39" d="M960,538.7l29.4-51.2h-59L960,538.7z M673.6,339.2h572.9L960,835.3L673.6,339.2z"/>
	<path class="st40" d="M960,539.3l30-52.2h-60.2L960,539.3z M674.1,339.5h571.8L960,834.7L674.1,339.5z"/>
	<path class="st41" d="M960,540l30.6-53.2h-61.3L960,540z M674.7,339.8h570.7L960,834.1L674.7,339.8z"/>
	<path class="st42" d="M960,540.7l31.2-54.2h-62.5L960,540.7z M675.2,340.1h569.6L960,833.4L675.2,340.1z"/>
	<path class="st43" d="M960,541.4l31.8-55.2h-63.7L960,541.4z M675.7,340.5h568.5L960,832.8L675.7,340.5z"/>
	<path class="st44" d="M960,542l32.3-56.2h-64.8L960,542z M676.3,340.8h567.4L960,832.2L676.3,340.8z"/>
	<path class="st45" d="M960,542.7l32.9-57.2h-66L960,542.7z M676.8,341.1h566.3L960,831.5L676.8,341.1z"/>
	<path class="st46" d="M960,543.4l33.5-58.2h-67.1L960,543.4z M677.4,341.4h565.2L960,830.9L677.4,341.4z"/>
	<path class="st47" d="M960,544l34.1-59.2h-68.3L960,544z M677.9,341.7h564.1L960,830.3L677.9,341.7z"/>
	<path class="st48" d="M960,544.7l34.6-60.2h-69.5L960,544.7z M678.5,342h563L960,829.6L678.5,342z"/>
	<path class="st49" d="M960,545.4l35.2-61.2h-70.6L960,545.4z M679,342.4H1241L960,829L679,342.4z"/>
	<path class="st50" d="M960,546l35.8-62.2H924L960,546z M679.6,342.7h560.9L960,828.4L679.6,342.7z"/>
	<path class="st51" d="M960,546.7l36.4-63.2h-72.9L960,546.7z M680.1,343h559.8L960,827.7L680.1,343z"/>
	<path class="st52" d="M960,547.4l36.9-64.2h-74.1L960,547.4z M680.7,343.3h558.7L960,827.1L680.7,343.3z"/>
	<path class="st53" d="M960,548.1l37.5-65.2h-75.3L960,548.1z M681.2,343.6h557.6L960,826.5L681.2,343.6z"/>
	<path class="st54" d="M960,548.7l38.1-66.2h-76.4L960,548.7z M681.8,343.9h556.5L960,825.9L681.8,343.9z"/>
	<path class="st55" d="M960,549.4l38.7-67.2h-77.6L960,549.4z M682.3,344.2h555.4L960,825.2L682.3,344.2z"/>
	<path class="st56" d="M960,550.1l39.3-68.2h-78.7L960,550.1z M682.9,344.6h554.3L960,824.6L682.9,344.6z"/>
	<path class="st57" d="M960,550.7l39.8-69.3h-79.9L960,550.7z M683.4,344.9h553.2L960,824L683.4,344.9z"/>
	<path class="st58" d="M960,551.4l40.4-70.3h-81.1L960,551.4z M683.9,345.2h552.1L960,823.3L683.9,345.2z"/>
	<path class="st59" d="M960,552.1l41-71.3h-82.2L960,552.1z M684.5,345.5h551L960,822.7L684.5,345.5z"/>
	<path class="st60" d="M960,552.7l41.6-72.3h-83.4L960,552.7z M685,345.8H1235L960,822.1L685,345.8z"/>
	<path class="st61" d="M960,553.4l42.1-73.3h-84.5L960,553.4z M685.6,346.1h548.8L960,821.4L685.6,346.1z"/>
	<path class="st62" d="M960,554.1l42.7-74.3H917L960,554.1z M686.1,346.5h547.7L960,820.8L686.1,346.5z"/>
	<path class="st63" d="M960,554.8l43.3-75.3h-86.9L960,554.8z M686.7,346.8h546.6L960,820.2L686.7,346.8z"/>
	<path class="st64" d="M960,555.4l43.9-76.3h-88L960,555.4z M687.2,347.1h545.6L960,819.5L687.2,347.1z"/>
	<path class="st65" d="M960,556.1l44.5-77.3h-89.2L960,556.1z M687.8,347.4h544.5L960,818.9L687.8,347.4z"/>
	<path class="st66" d="M960,556.8l45-78.3h-90.3L960,556.8z M688.3,347.7h543.4L960,818.3L688.3,347.7z"/>
	<path class="st67" d="M960,557.4l45.6-79.3h-91.5L960,557.4z M688.9,348h542.3L960,817.7L688.9,348z"/>
	<path class="st68" d="M960,558.1l46.2-80.3h-92.6L960,558.1z M689.4,348.3h541.2L960,817L689.4,348.3z"/>
	<path class="st69" d="M960,558.8l46.8-81.3H913L960,558.8z M690,348.7H1230L960,816.4L690,348.7z"/>
	<path class="st70" d="M960,559.4l47.3-82.3h-95L960,559.4z M690.5,349h539L960,815.8L690.5,349z"/>
	<path class="st71" d="M960,560.1l47.9-83.3h-96.1L960,560.1z M691,349.3H1229L960,815.1L691,349.3z"/>
	<path class="st72" d="M960,560.8l48.5-84.3h-97.3L960,560.8z M691.6,349.6h536.8L960,814.5L691.6,349.6z"/>
	<path class="st73" d="M960,561.5l49.1-85.3h-98.4L960,561.5z M692.1,349.9h535.7L960,813.9L692.1,349.9z"/>
	<path class="st74" d="M960,562.1l49.7-86.3h-99.6L960,562.1z M692.7,350.2h534.6L960,813.2L692.7,350.2z"/>
	<path class="st75" d="M960,562.8l50.2-87.3H909.5L960,562.8z M693.2,350.6h533.5L960,812.6L693.2,350.6z"/>
	<path class="st76" d="M960,563.5l50.8-88.3H908.9L960,563.5z M693.8,350.9h532.4L960,812L693.8,350.9z"/>
	<path class="st77" d="M960,564.1l51.4-89.4H908.3L960,564.1z M694.3,351.2h531.4L960,811.3L694.3,351.2z"/>
	<path class="st78" d="M960,564.8l52-90.4H907.7L960,564.8z M694.9,351.5h530.3L960,810.7L694.9,351.5z"/>
	<path class="st79" d="M960,565.5l52.5-91.4H907.1L960,565.5z M695.4,351.8h529.2L960,810.1L695.4,351.8z"/>
	<path class="st80" d="M960,566.1l53.1-92.4H906.6L960,566.1z M696,352.1H1224L960,809.5L696,352.1z"/>
	<path class="st81" d="M960,566.8l53.7-93.4H906L960,566.8z M696.5,352.4h527L960,808.8L696.5,352.4z"/>
	<path class="st82" d="M960,567.5l54.3-94.4H905.4L960,567.5z M697.1,352.8h525.9L960,808.2L697.1,352.8z"/>
	<path class="st83" d="M960,568.2l54.9-95.4h-110L960,568.2z M697.6,353.1h524.8L960,807.6L697.6,353.1z"/>
	<path class="st84" d="M960,568.8l55.4-96.4H904.2L960,568.8z M698.1,353.4h523.7L960,806.9L698.1,353.4z"/>
	<path class="st85" d="M960,569.5l56-97.4H903.7L960,569.5z M698.7,353.7h522.6L960,806.3L698.7,353.7z"/>
	<path class="st86" d="M960,570.2l56.6-98.4H903.1L960,570.2z M699.2,354h521.5L960,805.7L699.2,354z"/>
	<path class="st87" d="M960,570.8l57.2-99.4H902.5L960,570.8z M699.8,354.3h520.4L960,805L699.8,354.3z"/>
	<path class="st88" d="M960,571.5l57.7-100.4H901.9L960,571.5z M700.3,354.7h519.3L960,804.4L700.3,354.7z"/>
	<path class="st89" d="M960,572.2l58.3-101.4h-117L960,572.2z M700.9,355h518.2L960,803.8L700.9,355z"/>
	<path class="st90" d="M960,572.8l58.9-102.4H900.8L960,572.8z M701.4,355.3h517.2L960,803.1L701.4,355.3z"/>
	<path class="st91" d="M960,573.5l59.5-103.4H900.2L960,573.5z M702,355.6H1218L960,802.5L702,355.6z"/>
	<path class="st92" d="M960,574.2l60.1-104.4H899.6L960,574.2z M702.5,355.9h515L960,801.9L702.5,355.9z"/>
	<path class="st93" d="M960,574.9l60.6-105.4H899L960,574.9z M703.1,356.2h513.9L960,801.3L703.1,356.2z"/>
	<path class="st94" d="M960,575.5l61.2-106.4H898.4L960,575.5z M703.6,356.5h512.8L960,800.6L703.6,356.5z"/>
	<path class="st95" d="M960,576.2l61.8-107.4H897.8L960,576.2z M704.2,356.9h511.7L960,800L704.2,356.9z"/>
	<path class="st96" d="M960,576.9l62.4-108.4H897.3L960,576.9z M704.7,357.2h510.6L960,799.4L704.7,357.2z"/>
	<path class="st97" d="M960,577.5l62.9-109.5H896.7L960,577.5z M705.2,357.5h509.5L960,798.7L705.2,357.5z"/>
	<path class="st98" d="M960,578.2l63.5-110.5H896.1L960,578.2z M705.8,357.8h508.4L960,798.1L705.8,357.8z"/>
	<path class="st99" d="M960,578.9l64.1-111.5H895.5L960,578.9z M706.3,358.1h507.3L960,797.5L706.3,358.1z"/>
	<path class="st100" d="M960,579.5l64.7-112.5H894.9L960,579.5z M706.9,358.4h506.2L960,796.8L706.9,358.4z"/>
	<path class="st101" d="M960,580.2l65.3-113.5H894.4L960,580.2z M707.4,358.8h505.1L960,796.2L707.4,358.8z"/>
	<path class="st102" d="M960,580.9l65.8-114.5H893.8L960,580.9z M708,359.1h504L960,795.6L708,359.1z"/>
	<path class="st103" d="M960,581.6l66.4-115.5H893.2L960,581.6z M708.5,359.4h502.9L960,794.9L708.5,359.4z"/>
	<path class="st104" d="M960,582.2l67-116.5H892.6L960,582.2z M709.1,359.7h501.9L960,794.3L709.1,359.7z"/>
	<path class="st105" d="M960,582.9l67.6-117.5H892L960,582.9z M709.6,360h500.8L960,793.7L709.6,360z"/>
	<path class="st106" d="M960,583.6l68.1-118.5H891.4L960,583.6z M710.2,360.3h499.7L960,793.1L710.2,360.3z"/>
	<path class="st107" d="M960,584.2l68.7-119.5H890.9L960,584.2z M710.7,360.6h498.6L960,792.4L710.7,360.6z"/>
	<path class="st108" d="M960,584.9l69.3-120.5h-139L960,584.9z M711.3,361h497.5L960,791.8L711.3,361z"/>
	<path class="st109" d="M960,585.6l69.9-121.5H889.7L960,585.6z M711.8,361.3h496.4L960,791.2L711.8,361.3z"/>
	<path class="st110" d="M960,586.2l70.5-122.5H889.1L960,586.2z M712.4,361.6h495.3L960,790.5L712.4,361.6z"/>
	<path class="st111" d="M960,586.9l71-123.5H888.5L960,586.9z M712.9,361.9h494.2L960,789.9L712.9,361.9z"/>
	<path class="st112" d="M960,587.6l71.6-124.5H888L960,587.6z M713.4,362.2h493.1L960,789.3L713.4,362.2z"/>
	<path class="st113" d="M960,588.3l72.2-125.5H887.4L960,588.3z M714,362.5h492L960,788.6L714,362.5z"/>
	<path class="st114" d="M960,588.9l72.8-126.5h-146L960,588.9z M714.5,362.9h490.9L960,788L714.5,362.9z"/>
	<path class="st115" d="M960,589.6l73.3-127.5H886.2L960,589.6z M715.1,363.2h489.8L960,787.4L715.1,363.2z"/>
	<path class="st116" d="M960,590.3l73.9-128.5H885.6L960,590.3z M715.6,363.5h488.7L960,786.7L715.6,363.5z"/>
	<path class="st117" d="M960,590.9l74.5-129.6H885L960,590.9z M716.2,363.8h487.7L960,786.1L716.2,363.8z"/>
	<path class="st118" d="M960,591.6l75.1-130.6H884.5L960,591.6z M716.7,364.1h486.6L960,785.5L716.7,364.1z"/>
	<path class="st119" d="M960,592.3l75.7-131.6H883.9L960,592.3z M717.3,364.4h485.5L960,784.9L717.3,364.4z"/>
	<path class="st120" d="M960,592.9l76.2-132.6H883.3L960,592.9z M717.8,364.7h484.4L960,784.2L717.8,364.7z"/>
	<path class="st121" d="M960,593.6l76.8-133.6H882.7L960,593.6z M718.4,365.1h483.3L960,783.6L718.4,365.1z"/>
	<path class="st122" d="M960,594.3l77.4-134.6H882.1L960,594.3z M718.9,365.4h482.2L960,783L718.9,365.4z"/>
	<path class="st123" d="M960,595l78-135.6H881.6L960,595z M719.5,365.7h481.1L960,782.3L719.5,365.7z"/>
	<path class="st124" d="M960,595.6l78.5-136.6H881L960,595.6z M720,366h480L960,781.7L720,366z"/>
	<path class="st125" d="M960,596.3l79.1-137.6H880.4L960,596.3z M720.5,366.3h478.9L960,781.1L720.5,366.3z"/>
	<path class="st126" d="M960,597l79.7-138.6H879.8L960,597z M721.1,366.6h477.8L960,780.4L721.1,366.6z"/>
	<path class="st127" d="M960,597.6l80.3-139.6h-161L960,597.6z M721.6,367h476.7L960,779.8L721.6,367z"/>
	<path class="st128" d="M960,598.3l80.9-140.6H878.7L960,598.3z M722.2,367.3h475.6L960,779.2L722.2,367.3z"/>
	<path class="st129" d="M960,599l81.4-141.6H878.1L960,599z M722.7,367.6h474.5L960,778.5L722.7,367.6z"/>
	<path class="st130" d="M960,599.6l82-142.6H877.5L960,599.6z M723.3,367.9h473.4L960,777.9L723.3,367.9z"/>
	<path class="st131" d="M960,600.3l82.6-143.6H876.9L960,600.3z M723.8,368.2h472.4L960,777.3L723.8,368.2z"/>
	<path class="st132" d="M960,601l83.2-144.6H876.3L960,601z M724.4,368.5h471.3L960,776.7L724.4,368.5z"/>
	<path class="st133" d="M960,601.7l83.7-145.6h-168L960,601.7z M724.9,368.8h470.2L960,776L724.9,368.8z"/>
	<path class="st134" d="M960,602.3l84.3-146.6H875.2L960,602.3z M725.5,369.2h469.1L960,775.4L725.5,369.2z"/>
	<path class="st135" d="M960,603l84.9-147.6H874.6L960,603z M726,369.5h468L960,774.8L726,369.5z"/>
	<path class="st136" d="M960,603.7l85.5-148.6H874L960,603.7z M726.6,369.8h466.9L960,774.1L726.6,369.8z"/>
	<path class="st137" d="M960,604.3l86-149.7H873.4L960,604.3z M727.1,370.1h465.8L960,773.5L727.1,370.1z"/>
	<path class="st138" d="M960,605l86.6-150.7H872.8L960,605z M727.6,370.4h464.7L960,772.9L727.6,370.4z"/>
	<path class="st139" d="M960,605.7l87.2-151.7H872.3L960,605.7z M728.2,370.7h463.6L960,772.2L728.2,370.7z"/>
	<path class="st140" d="M960,606.3l87.8-152.7H871.7L960,606.3z M728.7,371.1h462.5L960,771.6L728.7,371.1z"/>
	<path class="st141" d="M960,607l88.4-153.7H871.1L960,607z M729.3,371.4h461.4L960,771L729.3,371.4z"/>
	<path class="st142" d="M960,607.7l88.9-154.7H870.5L960,607.7z M729.8,371.7h460.3L960,770.3L729.8,371.7z"/>
	<path class="st143" d="M960,608.4l89.5-155.7H869.9L960,608.4z M730.4,372h459.2L960,769.7L730.4,372z"/>
	<path class="st144" d="M960,609l90.1-156.7H869.3L960,609z M730.9,372.3h458.2L960,769.1L730.9,372.3z"/>
	<path class="st145" d="M960,609.7l90.7-157.7H868.8L960,609.7z M731.5,372.6h457.1L960,768.5L731.5,372.6z"/>
	<path class="st146" d="M960,610.4l91.2-158.7H868.2L960,610.4z M732,372.9h456L960,767.8L732,372.9z"/>
	<path class="st147" d="M960,611l91.8-159.7H867.6L960,611z M732.6,373.3h454.9L960,767.2L732.6,373.3z"/>
	<path class="st148" d="M960,611.7l92.4-160.7H867L960,611.7z M733.1,373.6h453.8L960,766.6L733.1,373.6z"/>
	<path class="st149" d="M960,612.4l93-161.7H866.4L960,612.4z M733.7,373.9h452.7L960,765.9L733.7,373.9z"/>
	<path class="st150" d="M960,613l93.6-162.7H865.9L960,613z M734.2,374.2h451.6L960,765.3L734.2,374.2z"/>
	<path class="st151" d="M960,613.7l94.1-163.7H865.3L960,613.7z M734.7,374.5h450.5L960,764.7L734.7,374.5z"/>
	<path class="st152" d="M960,614.4l94.7-164.7h-190L960,614.4z M735.3,374.8h449.4L960,764L735.3,374.8z"/>
	<path class="st153" d="M960,615.1l95.3-165.7H864.1L960,615.1z M735.8,375.2h448.3L960,763.4L735.8,375.2z"/>
	<path class="st154" d="M960,615.7l95.9-166.7H863.5L960,615.7z M736.4,375.5h447.2L960,762.8L736.4,375.5z"/>
	<path class="st155" d="M960,616.4l96.4-167.7H862.9L960,616.4z M736.9,375.8h446.1L960,762.1L736.9,375.8z"/>
	<path class="st156" d="M960,617.1l97-168.7H862.4L960,617.1z M737.5,376.1h445L960,761.5L737.5,376.1z"/>
	<path class="st157" d="M960,617.7l97.6-169.8H861.8L960,617.7z M738,376.4h444L960,760.9L738,376.4z"/>
	<path class="st158" d="M960,618.4l98.2-170.8h-197L960,618.4z M738.6,376.7h442.9L960,760.3L738.6,376.7z"/>
	<path class="st159" d="M960,619.1l98.8-171.8H860.6L960,619.1z M739.1,377h441.8L960,759.6L739.1,377z"/>
	<path class="st160" d="M960,619.7l99.3-172.8H860L960,619.7z M739.7,377.4h440.7L960,759L739.7,377.4z"/>
	<path class="st161" d="M960,620.4l99.9-173.8H859.5L960,620.4z M740.2,377.7h439.6L960,758.4L740.2,377.7z"/>
	<path class="st162" d="M960,621.1l100.5-174.8H858.9L960,621.1z M740.8,378h438.5L960,757.7L740.8,378z"/>
	<path class="st163" d="M960,621.8L1061.1,446H858.3L960,621.8z M741.3,378.3h437.4L960,757.1L741.3,378.3z"/>
	<path class="st164" d="M960,622.4l101.6-176.8H857.7L960,622.4z M741.8,378.6h436.3L960,756.5L741.8,378.6z"/>
	<path class="st165" d="M960,623.1l102.2-177.8H857.1L960,623.1z M742.4,378.9h435.2L960,755.8L742.4,378.9z"/>
	<path class="st166" d="M960,623.8L1062.8,445H856.6L960,623.8z M742.9,379.3h434.1L960,755.2L742.9,379.3z"/>
	<path class="st167" d="M960,624.4l103.4-179.8H856L960,624.4z M743.5,379.6h433L960,754.6L743.5,379.6z"/>
	<path class="st168" d="M960,625.1l104-180.8H855.4L960,625.1z M744,379.9H1176L960,753.9L744,379.9z"/>
	<path class="st169" d="M960,625.8L1064.5,444H854.8L960,625.8z M744.6,380.2h430.8L960,753.3L744.6,380.2z"/>
	<path class="st170" d="M960,626.4l105.1-182.8H854.2L960,626.4z M745.1,380.5h429.7L960,752.7L745.1,380.5z"/>
	<path class="st171" d="M960,627.1l105.7-183.8h-212L960,627.1z M745.7,380.8h428.7L960,752.1L745.7,380.8z"/>
	<path class="st172" d="M960,627.8L1066.3,443H853.1L960,627.8z M746.2,381.1h427.6L960,751.4L746.2,381.1z"/>
	<path class="st173" d="M960,628.5l106.8-185.8H852.5L960,628.5z M746.8,381.5h426.5L960,750.8L746.8,381.5z"/>
	<path class="st174" d="M960,629.1l107.4-186.8H851.9L960,629.1z M747.3,381.8h425.4L960,750.2L747.3,381.8z"/>
	<path class="st175" d="M960,629.8L1068,442H851.3L960,629.8z M747.9,382.1h424.3L960,749.5L747.9,382.1z"/>
	<path class="st176" d="M960,630.5l108.6-188.8H850.7L960,630.5z M748.4,382.4h423.2L960,748.9L748.4,382.4z"/>
	<path class="st177" d="M960,631.1l109.2-189.9h-219L960,631.1z M749,382.7H1171L960,748.3L749,382.7z"/>
	<path class="st178" d="M960,631.8L1069.7,441H849.6L960,631.8z M749.5,383h421L960,747.6L749.5,383z"/>
	<path class="st179" d="M960,632.5l110.3-191.9H849L960,632.5z M750,383.4H1170L960,747L750,383.4z"/>
	<path class="st180" d="M960,633.1l110.9-192.9H848.4L960,633.1z M750.6,383.7h418.8L960,746.4L750.6,383.7z"/>
	<path class="st181" d="M960,633.8l111.5-193.9H847.8L960,633.8z M751.1,384h417.7L960,745.7L751.1,384z"/>
	<path class="st182" d="M960,634.5l112-194.9H847.2L960,634.5z M751.7,384.3h416.6L960,745.1L751.7,384.3z"/>
	<path class="st183" d="M960,635.2l112.6-195.9h-226L960,635.2z M752.2,384.6h415.5L960,744.5L752.2,384.6z"/>
	<path class="st184" d="M960,635.8l113.2-196.9H846.1L960,635.8z M752.8,384.9h414.5L960,743.9L752.8,384.9z"/>
	<path class="st185" d="M960,636.5l113.8-197.9H845.5L960,636.5z M753.3,385.2h413.4L960,743.2L753.3,385.2z"/>
	<path class="st186" d="M960,637.2l114.4-198.9H844.9L960,637.2z M753.9,385.6h412.3L960,742.6L753.9,385.6z"/>
	<path class="st187" d="M960,637.8l114.9-199.9H844.3L960,637.8z M754.4,385.9h411.2L960,742L754.4,385.9z"/>
	<path class="st188" d="M960,638.5l115.5-200.9H843.8L960,638.5z M755,386.2H1165L960,741.3L755,386.2z"/>
	<path class="st189" d="M960,639.2l116.1-201.9H843.2L960,639.2z M755.5,386.5h409L960,740.7L755.5,386.5z"/>
	<path class="st190" d="M960,639.8l116.7-202.9H842.6L960,639.8z M756.1,386.8h407.9L960,740.1L756.1,386.8z"/>
	<path class="st191" d="M960,640.5l117.2-203.9H842L960,640.5z M756.6,387.1h406.8L960,739.4L756.6,387.1z"/>
	<path class="st192" d="M960,641.2l117.8-204.9H841.4L960,641.2z M757.1,387.5h405.7L960,738.8L757.1,387.5z"/>
	<path class="st193" d="M960,641.9l118.4-205.9H840.8L960,641.9z M757.7,387.8h404.6L960,738.2L757.7,387.8z"/>
	<path class="st194" d="M960,642.5l119-206.9H840.3L960,642.5z M758.2,388.1h403.5L960,737.5L758.2,388.1z"/>
	<path class="st195" d="M960,643.2l119.6-207.9H839.7L960,643.2z M758.8,388.4h402.4L960,736.9L758.8,388.4z"/>
	<path class="st196" d="M960,643.9l120.1-208.9h-241L960,643.9z M759.3,388.7h401.3L960,736.3L759.3,388.7z"/>
	<path class="st197" d="M960,644.5l120.7-210H838.5L960,644.5z M759.9,389h400.2L960,735.7L759.9,389z"/>
	<path class="st198" d="M960,645.2l121.3-211H837.9L960,645.2z M760.4,389.3h399.2L960,735L760.4,389.3z"/>
	<path class="st199" d="M960,645.9l121.9-212H837.4L960,645.9z M761,389.7H1159L960,734.4L761,389.7z"/>
	<path class="st200" d="M960,646.5l122.4-213H836.8L960,646.5z M761.5,390h397L960,733.8L761.5,390z"/>
	<path class="st201" d="M960,647.2l123-214H836.2L960,647.2z M762.1,390.3h395.9L960,733.1L762.1,390.3z"/>
	<path class="st202" d="M960,647.9l123.6-215h-248L960,647.9z M762.6,390.6h394.8L960,732.5L762.6,390.6z"/>
	<path class="st203" d="M960,648.6l124.2-216H835L960,648.6z M763.2,390.9h393.7L960,731.9L763.2,390.9z"/>
	<path class="st204" d="M960,649.2l124.8-217H834.5L960,649.2z M763.7,391.2h392.6L960,731.2L763.7,391.2z"/>
	<path class="st205" d="M960,649.9l125.3-218H833.9L960,649.9z M764.2,391.6h391.5L960,730.6L764.2,391.6z"/>
	<path class="st206" d="M960,650.6l125.9-219H833.3L960,650.6z M764.8,391.9h390.4L960,730L764.8,391.9z"/>
	<path class="st207" d="M960,651.2l126.5-220H832.7L960,651.2z M765.3,392.2h389.3L960,729.3L765.3,392.2z"/>
	<path class="st208" d="M960,651.9l127.1-221H832.1L960,651.9z M765.9,392.5h388.2L960,728.7L765.9,392.5z"/>
	<path class="st209" d="M960,652.6l127.6-222H831.5L960,652.6z M766.4,392.8h387.1L960,728.1L766.4,392.8z"/>
	<path class="st210" d="M960,653.2l128.2-223H831L960,653.2z M767,393.1h386L960,727.5L767,393.1z"/>
	<path class="st211" d="M960,653.9l128.8-224H830.4L960,653.9z M767.5,393.4h385L960,726.8L767.5,393.4z"/>
	<path class="st212" d="M960,654.6l129.4-225H829.8L960,654.6z M768.1,393.8h383.9L960,726.2L768.1,393.8z"/>
	<path class="st213" d="M960,655.3l130-226H829.2L960,655.3z M768.6,394.1h382.8L960,725.6L768.6,394.1z"/>
	<path class="st214" d="M960,655.9l130.5-227H828.6L960,655.9z M769.2,394.4h381.7L960,724.9L769.2,394.4z"/>
	<path class="st215" d="M960,656.6l131.1-228h-263L960,656.6z M769.7,394.7h380.6L960,724.3L769.7,394.7z"/>
	<path class="st216" d="M960,657.3l131.7-229H827.5L960,657.3z M770.3,395h379.5L960,723.7L770.3,395z"/>
	<path class="st217" d="M960,657.9l132.3-230.1H826.9L960,657.9z M770.8,395.3h378.4L960,723L770.8,395.3z"/>
	<path class="st218" d="M960,658.6l132.8-231.1H826.3L960,658.6z M771.3,395.7h377.3L960,722.4L771.3,395.7z"/>
	<path class="st219" d="M960,659.3l133.4-232.1H825.7L960,659.3z M771.9,396h376.2L960,721.8L771.9,396z"/>
	<path class="st220" d="M960,659.9l134-233.1H825.1L960,659.9z M772.4,396.3h375.1L960,721.1L772.4,396.3z"/>
	<path class="st221" d="M960,660.6l134.6-234.1h-270L960,660.6z M773,396.6h374L960,720.5L773,396.6z"/>
	<path class="st222" d="M960,661.3l135.1-235.1H824L960,661.3z M773.5,396.9h372.9L960,719.9L773.5,396.9z"/>
	<path class="st223" d="M960,662l135.7-236.1H823.4L960,662z M774.1,397.2h371.8L960,719.3L774.1,397.2z"/>
	<path class="st224" d="M960,662.6l136.3-237.1H822.8L960,662.6z M774.6,397.5h370.7L960,718.6L774.6,397.5z"/>
	<path class="st225" d="M960,663.3l136.9-238.1H822.2L960,663.3z M775.2,397.9h369.7L960,718L775.2,397.9z"/>
	<path class="st226" d="M960,664l137.5-239.1H821.7L960,664z M775.7,398.2h368.6L960,717.4L775.7,398.2z"/>
	<path class="st227" d="M960,664.6l138-240.1h-277L960,664.6z M776.3,398.5h367.5L960,716.7L776.3,398.5z"/>
	<path class="st228" d="M960,665.3l138.6-241.1H820.5L960,665.3z M776.8,398.8h366.4L960,716.1L776.8,398.8z"/>
	<path class="st229" d="M960,666l139.2-242.1H819.9L960,666z M777.4,399.1h365.3L960,715.5L777.4,399.1z"/>
	<path class="st230" d="M960,666.6l139.8-243.1H819.3L960,666.6z M777.9,399.4h364.2L960,714.8L777.9,399.4z"/>
	<path class="st231" d="M960,667.3l140.3-244.1H818.8L960,667.3z M778.4,399.8h363.1L960,714.2L778.4,399.8z"/>
	<path class="st232" d="M960,668l140.9-245.1H818.2L960,668z M779,400.1h362L960,713.6L779,400.1z"/>
	<path class="st233" d="M960,668.7l141.5-246.1H817.6L960,668.7z M779.5,400.4h360.9L960,712.9L779.5,400.4z"/>
	<path class="st234" d="M960,669.3l142.1-247.1H817L960,669.3z M780.1,400.7h359.8L960,712.3L780.1,400.7z"/>
	<path class="st235" d="M960,670l142.7-248.1H816.4L960,670z M780.6,401h358.7L960,711.7L780.6,401z"/>
	<path class="st236" d="M960,670.7l143.2-249.1H815.8L960,670.7z M781.2,401.3h357.6L960,711.1L781.2,401.3z"/>
	<path class="st237" d="M960,671.3l143.8-250.2H815.3L960,671.3z M781.7,401.6h356.5L960,710.4L781.7,401.6z"/>
	<path class="st238" d="M960,672l144.4-251.2H814.7L960,672z M782.3,402h355.5L960,709.8L782.3,402z"/>
	<path class="st239" d="M960,672.7l145-252.2H814.1L960,672.7z M782.8,402.3h354.4L960,709.2L782.8,402.3z"/>
	<path class="st240" d="M960,673.3l145.5-253.2h-292L960,673.3z M783.4,402.6h353.3L960,708.5L783.4,402.6z"/>
	<path class="st241" d="M960,674l146.1-254.2H812.9L960,674z M783.9,402.9h352.2L960,707.9L783.9,402.9z"/>
	<path class="st242" d="M960,674.7l146.7-255.2H812.4L960,674.7z M784.5,403.2h351.1L960,707.3L784.5,403.2z"/>
	<path class="st243" d="M960,675.4l147.3-256.2H811.8L960,675.4z M785,403.5h350L960,706.6L785,403.5z"/>
	<path class="st244" d="M960,676l147.9-257.2H811.2L960,676z M785.6,403.9h348.9L960,706L785.6,403.9z"/>
	<path class="st245" d="M960,676.7l148.4-258.2H810.6L960,676.7z M786.1,404.2h347.8L960,705.4L786.1,404.2z"/>
	<path class="st246" d="M960,677.4l149-259.2H810L960,677.4z M786.6,404.5h346.7L960,704.7L786.6,404.5z"/>
	<path class="st247" d="M960,678l149.6-260.2H809.4L960,678z M787.2,404.8h345.6L960,704.1L787.2,404.8z"/>
	<path class="st248" d="M960,678.7l150.2-261.2H808.9L960,678.7z M787.7,405.1h344.5L960,703.5L787.7,405.1z"/>
	<path class="st249" d="M960,679.4l150.7-262.2H808.3L960,679.4z M788.3,405.4h343.4L960,702.9L788.3,405.4z"/>
	<path class="st250" d="M960,680l151.3-263.2H807.7L960,680z M788.8,405.7h342.3L960,702.2L788.8,405.7z"/>
	<path class="st251" d="M960,680.7l151.9-264.2H807.1L960,680.7z M789.4,406.1h341.3L960,701.6L789.4,406.1z"/>
	<path class="st252" d="M960,681.4l152.5-265.2H806.5L960,681.4z M789.9,406.4h340.2L960,701L789.9,406.4z"/>
	<path class="st253" d="M960,682.1l153.1-266.2H806L960,682.1z M790.5,406.7h339.1L960,700.3L790.5,406.7z"/>
	<path class="st254" d="M960,682.7l153.6-267.2H805.4L960,682.7z M791,407h338L960,699.7L791,407z"/>
	<path class="st255" d="M960,683.4l154.2-268.2H804.8L960,683.4z M791.6,407.3h336.9L960,699.1L791.6,407.3z"/>
	<path class="st256" d="M804.2,414.8L960,684.1l154.8-269.2H804.2z M960,698.4L792.1,407.6h335.8L960,698.4z"/>
</g>
</svg>
